<svg width="200" height="200" viewBox="0 0 200 200" fill="none" xmlns="http://www.w3.org/2000/svg">
  <!-- Background Circle with Gradient -->
  <defs>
    <linearGradient id="logoGradient" x1="0%" y1="0%" x2="100%" y2="100%">
      <stop offset="0%" style="stop-color:#2563eb;stop-opacity:1" />
      <stop offset="100%" style="stop-color:#9333ea;stop-opacity:1" />
    </linearGradient>
    <linearGradient id="iconGradient" x1="0%" y1="0%" x2="100%" y2="100%">
      <stop offset="0%" style="stop-color:#ffffff;stop-opacity:1" />
      <stop offset="100%" style="stop-color:#f3f4f6;stop-opacity:1" />
    </linearGradient>
    <filter id="shadow" x="-20%" y="-20%" width="140%" height="140%">
      <feDropShadow dx="0" dy="4" stdDeviation="8" flood-color="#000000" flood-opacity="0.1"/>
    </filter>
  </defs>
  
  <!-- Main Circle Background -->
  <circle cx="100" cy="100" r="90" fill="url(#logoGradient)" filter="url(#shadow)"/>
  
  <!-- Lightning Bolt Icon -->
  <path d="M85 45 L75 85 L95 85 L85 125 L115 85 L95 85 L105 45 Z" fill="url(#iconGradient)" stroke="white" stroke-width="2"/>
  
  <!-- Document/Post Symbol -->
  <rect x="60" y="130" width="80" height="40" rx="4" fill="white" opacity="0.9"/>
  <rect x="70" y="140" width="60" height="2" fill="#2563eb" opacity="0.7"/>
  <rect x="70" y="145" width="45" height="2" fill="#9333ea" opacity="0.7"/>
  <rect x="70" y="150" width="50" height="2" fill="#2563eb" opacity="0.7"/>
  <rect x="70" y="155" width="35" height="2" fill="#9333ea" opacity="0.7"/>
  
  <!-- Connection Lines -->
  <path d="M100 85 L100 125" stroke="white" stroke-width="2" opacity="0.6" stroke-dasharray="2,2"/>
  
  <!-- Small Decorative Elements -->
  <circle cx="70" cy="70" r="3" fill="white" opacity="0.6"/>
  <circle cx="130" cy="70" r="3" fill="white" opacity="0.6"/>
  <circle cx="70" cy="130" r="3" fill="white" opacity="0.6"/>
  <circle cx="130" cy="130" r="3" fill="white" opacity="0.6"/>
</svg> 